<?xml version="1.0" encoding="UTF-8"?>
<svg id="Layer_1" xmlns="http://www.w3.org/2000/svg" version="1.1" viewBox="0 0 807.34 619.69">
  <!-- Generator: Adobe Illustrator 30.3.0, SVG Export Plug-In . SVG Version: 2.1.3 Build 182)  -->
  <defs>
    <style>
      .st0 {
        fill: #eb6056;
      }

      .st1 {
        fill: #6d6e71;
      }

      .st2 {
        fill: #335483;
      }

      .st3 {
        fill: #f8b92c;
      }

      .st4 {
        fill: #199298;
      }
    </style>
  </defs>
  <g id="Logo">
    <path class="st2" d="M350.48,189.97c11.59-11.17,24.64-22.76,35.32-33.92,5.07-4.3,5.07-9.88,0-14.21-4.53-3.99-10.85-5.27-17.17,0l-48.7,44.43,13.04,16.32,31.96,36.54c7.23,10.23,30.39.63,19.54-12.62l-33.95-36.54h-.03Z"/>
    <path class="st2" d="M160.5,325.31h0l26.37-30.16c5.98-8.43,25.09-.54,16.12,10.42l-28.03,30.16c9.57,9.23,20.36,18.8,29.17,28.03,4.19,3.56,4.19,8.17,0,11.73-3.73,3.3-8.97,4.36-14.18,0l-40.22-36.69"/>
    <path class="st2" d="M297.5,107.97c-6.32,0-11.39,4.47-11.39,9.74v116.29c0,5.27,4.87,9.74,10.68,9.74,6.32,0,11.39-4.47,11.39-9.74v-116.29c0-5.27-4.87-9.74-10.68-9.74"/>
    <path class="st2" d="M122.45,180.57c0-5.27,5.07-9.74,11.39-9.74,5.78,0,10.68,4.47,10.68,9.74v41.95h106.21c17.74,0,18.09,20.91,0,20.91h-116.89c-6.32,0-11.39-3.99-11.39-9.74v-53.12Z"/>
    <path class="st2" d="M708.25,235.97c.09-.2.14-.4.2-.6.09-.28.14-.54.17-.83v-.03c.54-3.28-.77-6.75-3.82-9.11l-48.59-52.72c11.56-11.17,38.85-36.91,49.5-48.08,5.07-4.3,5.07-9.88,0-14.21-4.53-3.99-10.85-5.27-17.17,0l-62.92,58.59,13.04,16.32,32.78,37.23h-97.47v-72.29c0-5.75-6.52-9.88-12.48-9.88h-28.88c-59.67,0-75.31,50.16-49.62,82.17h-53.77v-104.82c0-5.27-4.87-9.74-10.68-9.74-6.32,0-11.39,4.47-11.39,9.74v115.98c0,5.75,5.07,9.74,11.39,9.74h276.93c.8,0,1.6-.06,2.36-.17,5.75-.68,9.2-3.7,10.4-7.26M532.62,159.8h17.49v62.72h-28.65c-37.65-9.97-35.63-62.72,11.17-62.72"/>
    <path class="st2" d="M522.54,119.98c0,6.47,5.3,11.71,11.82,11.71s11.82-5.24,11.82-11.71-5.3-11.71-11.82-11.71-11.82,5.24-11.82,11.71"/>
    <path class="st2" d="M206.81,134.34c-.14,0-.28.03-.46.06v-.06h-24.35c-6.52,0-11.82,5.24-11.82,11.71s5.3,11.71,11.82,11.71h24.35v-.06c.14,0,.28.06.46.06,6.52,0,11.82-5.24,11.82-11.71s-5.3-11.71-11.82-11.71"/>
    <path class="st2" d="M146.17,346.88v21.82c0,12.93-20.65,13.1-20.65,0v-89.01c0-13.24,20.65-13.73,20.65,0v39.59"/>
    <path class="st2" d="M227.63,378.21c-5.01-2.79-8.12-8.43-5.01-14.95l44.89-87.47c4.22-8.26,15.47-8.57,19.4,0l44.09,87.47c6.41,12.16-12.5,21.82-18.14,9.66l-6.86-13.73h-57.71l-6.72,13.73c-2.51,5.3-8.29,6.38-13.93,5.3M294.85,338.62l-17.66-38.51-19.23,38.51h36.91-.03Z"/>
    <path class="st2" d="M362.18,290.59v24.78h39.88c5.64,0,11.25,5.61,11.25,11.08,0,5.16-5.64,9.34-11.25,9.34h-39.88v32.73c0,5.47-3.9,9.66-9.37,9.66-6.86,0-11.11-4.22-11.11-9.66v-88.55c0-5.61,4.22-9.66,11.11-9.66h54.89c6.86,0,10.94,4.04,10.94,9.66,0,4.98-4.07,10.6-10.94,10.6h-45.51v.03Z"/>
    <path class="st2" d="M417.01,378.21c-5.01-2.79-8.12-8.43-5.01-14.95l44.89-87.47c4.22-8.26,15.47-8.57,19.4,0l44.09,87.47c6.41,12.16-12.5,21.82-18.14,9.66l-6.89-13.73h-57.71l-6.72,13.73c-2.51,5.3-8.29,6.38-13.93,5.3M484.23,338.62l-17.66-38.51-19.23,38.51h36.91-.03Z"/>
    <path class="st2" d="M532.4,378.21c-5.01-2.79-8.12-8.43-5.01-14.95l44.89-87.47c4.22-8.26,15.47-8.57,19.4,0l44.09,87.47c6.41,12.16-12.5,21.82-18.14,9.66l-6.89-13.73h-57.71l-6.72,13.73c-2.51,5.3-8.29,6.38-13.93,5.3M599.64,338.62l-17.66-38.51-19.23,38.51h36.91-.03Z"/>
    <path class="st2" d="M652.51,289.83h-27.37c-13.61,0-13.61-19.97,0-19.97h73.97c13.93,0,13.93,19.97,0,19.97h-25.95v78.73c0,13.56-20.65,13.87-20.65,0v-78.73h0Z"/>
    <g>
      <path class="st0" d="M59.21,44.35c0,9.23,7.55,16.73,16.9,16.73s16.9-7.5,16.9-16.73-7.55-16.73-16.9-16.73-16.9,7.5-16.9,16.73"/>
      <path class="st3" d="M120.3,136.53l-44.01-44.01,44.01-44.01c4.05-4.05,10.62-4.05,14.67,0h0c4.05,4.05,4.05,10.62,0,14.67l-29.34,29.34,29.34,29.34c4.05,4.05,4.05,10.62,0,14.67h0c-4.05,4.05-10.62,4.05-14.67,0Z"/>
      <path class="st4" d="M37.53,154.97l44.01-44.01-44.01-44.01c-4.05-4.05-10.62-4.05-14.67,0h0c-4.05,4.05-4.05,10.62,0,14.67l29.34,29.34-29.34,29.34c-4.05,4.05-4.05,10.62,0,14.67h0c4.05,4.05,10.62,4.05,14.67,0Z"/>
    </g>
  </g>
  <g>
    <polygon class="st1" points="131.12 415.1 126.61 411.11 122.88 415.49 127.33 419.28 131.12 415.1"/>
    <polygon class="st1" points="140.14 414.9 135.63 410.91 131.9 415.29 136.35 419.09 140.14 414.9"/>
    <polygon class="st1" points="153.86 466.15 149.36 462.16 145.63 466.53 150.07 470.33 153.86 466.15"/>
    <polygon class="st1" points="162.88 465.95 158.37 461.96 154.65 466.34 159.09 470.13 162.88 465.95"/>
    <path class="st1" d="M239.82,448.5c0-5.36-2.35-10.27-7.03-14.74-4.68-4.46-10.59-7.61-17.75-9.44-5.92,5.54-8.88,11.1-8.88,16.67,0,2.66.89,5.07,2.67,7.26-2.31.4-4.81.59-7.52.59h-1.5c-3.4,0-5.82-.74-7.26-2.23-1.44-1.48-2.16-3.94-2.16-7.38v-30.78l-6.14.52v30.98c0,1.61-.07,2.85-.19,3.73-.13.87-.46,1.76-.99,2.67-.52.92-1.36,1.56-2.51,1.93-1.16.37-2.69.56-4.61.56h-1.7c-4.15,0-7.41-.57-9.81-1.7.49-1.61.72-3.68.72-6.21v-8.56l-5.89.46v8.69c0,2.44-.66,4.27-1.99,5.49-1.33,1.22-4.11,1.83-8.34,1.83h-1.89c-2.7,0-4.58-.45-5.63-1.34-1.05-.89-1.57-2.45-1.57-4.67v-18.96c-6.88,0-12.8,1.69-17.75,5.07-4.94,3.38-7.41,7.77-7.41,13.17,0,2.96,1.24,5.17,3.72,6.64,2.49,1.46,5.9,2.19,10.27,2.19,2.09,0,4.33-.13,6.73-.4,1.52,3.49,4.81,5.23,9.87,5.23h4.11c5.45,0,9.41-1.11,11.9-3.33,2.91,2.22,6.95,3.33,12.09,3.33h2.03c6.19,0,10.28-1.61,12.29-4.83,2.26,3.22,5.95,4.83,11.04,4.83h3c5.1,0,9.48-.78,13.14-2.35,2.65,1.52,5.57,2.72,8.76,3.59,3.18.87,6.04,1.31,8.56,1.31,5.05,0,7.58-3.27,7.58-9.8ZM134.32,443.53v1.11c-1.57.13-3.05.19-4.45.19-3.26,0-5.74-.39-7.42-1.17-1.67-.78-2.52-1.83-2.52-3.14,0-2.14,1.33-4.25,3.99-6.34,2.66-2.09,6.12-3.33,10.39-3.72v13.07ZM215.7,446.73c-3.06-2.05-4.58-4.36-4.58-6.93,0-2.88,1.49-5.8,4.45-8.76,4.62,1.57,6.93,4.3,6.93,8.17,0,1.22-.56,2.52-1.7,3.89-1.14,1.37-2.83,2.59-5.1,3.63ZM220.93,449.54c4.13-3.27,6.21-6.93,6.21-10.98,0-.82-.07-1.63-.2-2.41,5.1,4.27,7.65,8.78,7.65,13.52,0,.87-.21,1.53-.62,1.96-.42.43-1.14.65-2.19.65-3.14,0-6.75-.91-10.85-2.74Z"/>
    <path class="st1" d="M268.84,408.96c.3,15.47.46,24.14.46,26.01,0,4.54-.28,8.08-.85,10.66-2.96,1.7-6.31,2.75-10.07,3.14.09-1.83.13-3.18.13-4.05,0-9.15-1.99-17.91-5.95-26.28l-5.69,2.09c4.27,9.28,6.4,17.87,6.4,25.76,0,1.17-.02,2.05-.07,2.61-3.35-.13-6.12-.43-8.3-.91v6.4c3.01,1.01,6.56,1.5,10.65,1.5,6.31,0,12.11-1.8,17.39-5.42,1.61-4.66,2.42-10.87,2.42-18.63,0-3.96-.16-11.76-.46-23.39l-6.07.52Z"/>
    <path class="st1" d="M243.08,417.38c4.84-1.83,9.48-3.14,13.92-3.92l-.65-3.33c-3.18.57-4.95.85-5.3.85-1.31,0-2.33-.35-3.07-1.05-.74-.69-1.11-1.52-1.11-2.49,0-.87.31-1.55.94-2.05.63-.5,1.45-.75,2.45-.75,1.14,0,2.35.24,3.66.72l1.18-3.01c-1.61-.83-3.32-1.24-5.1-1.24s-3.36.53-4.57,1.6c-1.22,1.07-1.83,2.59-1.83,4.54,0,2.31.93,4.08,2.81,5.3-.83.26-2.29.83-4.38,1.7l1.05,3.14Z"/>
    <polygon class="st1" points="284.91 455.75 291.06 455.75 291.06 408.43 284.91 408.96 284.91 455.75"/>
    <polygon class="st1" points="350.01 424.71 345.51 420.72 341.78 425.09 346.23 428.89 350.01 424.71"/>
    <path class="st1" d="M363.81,450.98c.87-2.22,1.31-5.03,1.31-8.43,0-3.88-.57-8.13-1.7-12.75l-6.28,1.31c1.22,5.28,1.83,9.94,1.83,13.99v.98c-5.54,2.27-12.29,3.4-20.26,3.4-4.66,0-8.28-.4-10.85-1.21-2.57-.8-4.25-1.83-5.04-3.07-.78-1.24-1.17-2.88-1.17-4.93,0-2.26.46-5.19,1.37-8.76l-5.36-1.11c-1.57,4.71-2.35,8.76-2.35,12.16,0,2.14.31,3.98.92,5.52.61,1.55,1.69,2.99,3.24,4.31,1.55,1.33,3.81,2.35,6.8,3.04,2.98.7,6.65,1.05,11.01,1.05,5.79,0,11.01-.5,15.65-1.5,4.64-1,8.26-2.33,10.88-3.99Z"/>
    <polygon class="st1" points="341 424.9 336.49 420.91 332.76 425.3 337.21 429.08 341 424.9"/>
    <polygon class="st1" points="380.28 408.43 374.13 408.96 374.13 455.75 380.28 455.75 380.28 408.43"/>
    <path class="st1" d="M401.13,446.4c-1.97,0-3.58-.67-4.84-2.02-1.26-1.35-1.89-2.92-1.89-4.71s.61-3.15,1.83-4.21c1.22-1.07,2.79-1.6,4.7-1.6,1.44,0,3.42.3,5.95.91l1.57-5.04c-3-1.13-5.9-1.7-8.69-1.7-3.18,0-5.84,1.02-7.97,3.04-2.14,2.03-3.21,4.74-3.21,8.14,0,2.14.47,4.11,1.41,5.92.94,1.81,2.38,3.17,4.35,4.08-2,.78-4.05,1.61-6.14,2.49l1.7,5.36c6.97-2.83,14.51-5.19,22.62-7.06l-1.18-5.62c-5.31,1.35-8.71,2.02-10.19,2.02Z"/>
    <path class="st1" d="M435.31,455.75h1.37c5.8,0,11.03-.93,15.69-2.81,3.92,1.88,9.17,2.81,15.75,2.81h4.77c10.85,0,18.96-1.43,24.31-4.31.22-1.23.33-2.59.33-4.12,0-4.92-1.54-9.32-4.61-13.2-3.07-3.88-7.57-7.02-13.49-9.41,6.58-4.62,13.92-8.02,22.03-10.2v-6.54c-10.46,2.84-19.67,7.28-27.65,13.34v7.91c5.06,1.7,9.16,4.09,12.32,7.16,3.16,3.07,5.04,6.44,5.66,10.1-5.14,1.57-11.53,2.35-19.15,2.35h-3.4c-3.01,0-6.08-.26-9.22-.78,3.88-2.97,5.82-6.67,5.82-11.11,0-3.83-1.22-6.87-3.66-9.12-2.44-2.24-5.42-3.36-8.95-3.36s-6.67,1.14-9.15,3.4c-2.48,2.26-3.73,5.47-3.73,9.61s1.83,7.78,5.49,10.66c-2.88.48-5.9.72-9.09.72h-2.22c-2.97,0-5.12-.75-6.47-2.26-1.35-1.5-2.03-4.09-2.03-7.75v-30.39l-6.21.52v30.98c0,5.23.98,9.18,2.94,11.83,1.96,2.66,5.4,3.99,10.33,3.99h2.23ZM445.45,437.39c0-1.88.7-3.45,2.09-4.74,1.39-1.29,3.11-1.93,5.16-1.93,2.31,0,4.2.69,5.69,2.09,1.48,1.39,2.22,3.2,2.22,5.42,0,3.27-2.59,6.05-7.78,8.36-4.92-2.35-7.38-5.42-7.38-9.21Z"/>
    <polygon class="st1" points="457.47 416.34 452.63 412.09 448.64 416.79 453.42 420.85 457.47 416.34"/>
    <polygon class="st1" points="546.17 414.9 541.66 410.91 537.93 415.29 542.38 419.09 546.17 414.9"/>
    <polygon class="st1" points="537.15 415.1 532.64 411.11 528.92 415.49 533.35 419.28 537.15 415.1"/>
    <polygon class="st1" points="560.68 466.34 565.13 470.13 568.91 465.95 564.4 461.96 560.68 466.34"/>
    <polygon class="st1" points="555.38 462.16 551.66 466.53 556.1 470.33 559.89 466.15 555.38 462.16"/>
    <path class="st1" d="M666.56,455.75h2.88c6.1,0,11.68-.5,16.74-1.5,5.05-1,9.74-2.26,14.05-3.76,4.32-1.5,7.13-2.38,8.44-2.65l.85-5.36c-2.18-1.17-5.18-3.09-8.99-5.75-3.82-2.65-7.09-4.66-9.84-6.01-2.74-1.35-5.42-2.03-8.04-2.03-2.22,0-4.1.64-5.65,1.9-1.55,1.26-2.89,3.33-4.02,6.21l4.64,1.7c1.17-2.4,2.79-3.6,4.83-3.6,1.26,0,2.68.31,4.25.92,1.57.61,2.88,1.22,3.95,1.83,1.07.61,2.79,1.67,5.16,3.21,2.38,1.52,4.1,2.61,5.19,3.27-3.4.91-6.25,1.64-8.56,2.19-2.31.55-5.59,1.1-9.83,1.67-4.25.57-8.4.85-12.46.85h-3.33c-2.18,0-3.73-.4-4.64-1.21-.92-.81-1.66-2.45-2.23-4.94-1.08-4.48-2.55-7.85-4.38-10.09-1.83-2.24-4.33-3.37-7.52-3.37s-5.63.82-7.48,2.45c-1.85,1.64-3.65,4.13-5.39,7.49-1.83,3.66-3.38,6.19-4.64,7.58-1.26,1.4-3,2.09-5.23,2.09h-4.45c-4.71,0-9.02-.64-12.94-1.9,3.01-2.4,5.43-5.14,7.26-8.23,1.83-3.09,3.01-6.16,3.53-9.22-4.4-2.26-9.89-3.39-16.48-3.39-5.88,0-11.28.78-16.21,2.35.26,3.62,1.37,7.04,3.33,10.27,1.96,3.23,4.31,5.9,7.06,8.04-4.27,1.4-9,2.09-14.19,2.09h-1.96c-4.14,0-7.4-.57-9.8-1.7.48-1.61.72-3.68.72-6.21v-8.56l-5.88.46v8.69c0,2.44-.67,4.27-2,5.49-1.33,1.22-4.11,1.83-8.33,1.83h-1.9c-2.7,0-4.57-.45-5.62-1.34-1.05-.89-1.57-2.45-1.57-4.67v-18.96c-6.89,0-12.8,1.69-17.75,5.07-4.95,3.38-7.42,7.77-7.42,13.17,0,2.96,1.24,5.17,3.73,6.64,2.48,1.46,5.9,2.19,10.26,2.19,2.09,0,4.33-.13,6.73-.4,1.52,3.49,4.81,5.23,9.87,5.23h4.12c5.45,0,9.41-1.11,11.9-3.33,2.92,2.22,6.95,3.33,12.09,3.33h2.88c7.41,0,14.01-1.55,19.81-4.64,5.23,3.09,11.5,4.64,18.82,4.64h4.05c3.58,0,6.47-1.17,8.7-3.53,3.74,2.39,8.26,3.59,13.53,3.59,4.27,0,7.93-.94,10.98-2.81,1.83,1.83,4.62,2.74,8.37,2.74ZM540.35,443.53v1.11c-1.57.13-3.05.19-4.44.19-3.27,0-5.75-.39-7.42-1.17-1.68-.78-2.52-1.83-2.52-3.14,0-2.14,1.33-4.25,3.99-6.34,2.65-2.09,6.12-3.33,10.39-3.72v13.07ZM592.44,432.81c3.4-.66,6.47-.99,9.22-.99,3.57,0,7.14.59,10.71,1.77-2.4,4.83-5.66,8.58-9.8,11.24-4.54-2.79-7.91-6.8-10.13-12.02ZM647.87,449.41c-3.74,0-7.28-.75-10.59-2.29l1.64-3.07c1.7-3.35,3.17-5.62,4.41-6.8,1.24-1.17,2.71-1.76,4.42-1.76,2.05,0,3.59.9,4.64,2.68,1.05,1.79,2.09,4.92,3.14,9.41l.06.19c-2.05,1.09-4.62,1.63-7.71,1.63Z"/>
    <polygon class="st1" points="692.91 464.58 688.07 460.33 684.09 465.03 688.85 469.09 692.91 464.58"/>
    <path class="st1" d="M142.69,484.11h-5.98c-.91,4.33-2.66,8.1-5.24,11.31-2.58,3.22-6.19,6.13-10.83,8.75v-20.06h-5.92v39.88h5.92v-13.85c2.43-1.33,4.4-2.49,5.88-3.48l11.67,17.32h6.95l-14.19-20.56c6.19-5.17,10.1-11.61,11.74-19.32Z"/>
    <path class="st1" d="M158.58,494.42c-3.57,0-6.68.55-9.34,1.65l1.14,4.62c2.31-.95,4.86-1.42,7.63-1.42,4.44,0,6.67,2.05,6.67,6.15v2.39c-1.86-.42-3.87-.63-6.04-.63-3.38,0-6.09.76-8.14,2.27-2.05,1.52-3.08,3.7-3.08,6.55,0,2.59.97,4.67,2.91,6.27,1.94,1.6,4.71,2.39,8.31,2.39,4.71,0,8.6-.87,11.68-2.62v-16.35c0-3.65-.98-6.44-2.96-8.38-1.98-1.94-4.9-2.91-8.78-2.91ZM164.67,519.14c-1.37.8-3.21,1.2-5.53,1.2-3.99,0-5.98-1.51-5.98-4.56s2.05-4.79,6.15-4.79c1.75,0,3.53.23,5.36.68v7.47Z"/>
    <path class="st1" d="M182.19,485.08c-1.54,1.86-2.3,4.43-2.3,7.69v2.34h-4.1v4.67h4.1v24.21h5.75v-24.21h7.29v-4.67h-7.29v-2.45c0-3.68,1.48-5.53,4.45-5.53.65,0,1.73.14,3.25.4l.97-4.56c-1.98-.46-3.68-.68-5.13-.68-3.11,0-5.44.94-6.98,2.79Z"/>
    <path class="st1" d="M205.81,494.42c-3.57,0-6.68.55-9.35,1.65l1.14,4.62c2.32-.95,4.86-1.42,7.64-1.42,4.45,0,6.67,2.05,6.67,6.15v2.39c-1.86-.42-3.88-.63-6.04-.63-3.38,0-6.1.76-8.15,2.27-2.05,1.52-3.08,3.7-3.08,6.55,0,2.59.97,4.67,2.91,6.27,1.94,1.6,4.71,2.39,8.32,2.39,4.71,0,8.61-.87,11.67-2.62v-16.35c0-3.65-.98-6.44-2.96-8.38-1.98-1.94-4.9-2.91-8.78-2.91ZM211.91,519.14c-1.37.8-3.22,1.2-5.53,1.2-3.99,0-5.98-1.51-5.98-4.56s2.05-4.79,6.15-4.79c1.74,0,3.53.23,5.36.68v7.47Z"/>
    <path class="st1" d="M235.32,494.42c-3.57,0-6.68.55-9.35,1.65l1.14,4.62c2.32-.95,4.86-1.42,7.64-1.42,4.44,0,6.67,2.05,6.67,6.15v2.39c-1.86-.42-3.87-.63-6.04-.63-3.38,0-6.1.76-8.15,2.27-2.05,1.52-3.08,3.7-3.08,6.55,0,2.59.97,4.67,2.91,6.27,1.94,1.6,4.71,2.39,8.32,2.39,4.7,0,8.6-.87,11.67-2.62v-16.35c0-3.65-.99-6.44-2.96-8.38-1.98-1.94-4.9-2.91-8.78-2.91ZM241.42,519.14c-1.37.8-3.22,1.2-5.53,1.2-3.99,0-5.98-1.51-5.98-4.56s2.05-4.79,6.15-4.79c1.74,0,3.53.23,5.36.68v7.47Z"/>
    <path class="st1" d="M266.54,519.83c-2.96,0-4.44-1.77-4.44-5.3v-14.75h7.12v-4.67h-7.12v-6.9l-5.76.28v6.61h-4.1v4.67h4.1v14.81c0,6.72,3.08,10.09,9.23,10.09,1.55,0,3.09-.19,4.62-.57l-.34-4.67c-.99.27-2.09.4-3.31.4Z"/>
    <path class="st1" d="M312.73,519.37c-4.18,0-7.29-1.31-9.35-3.93-2.05-2.62-3.08-6.3-3.08-11.05s.99-8.6,2.99-11.42c2-2.83,5.08-4.25,9.26-4.25,2.16,0,4.92.61,8.25,1.82l1.37-5.13c-3.22-1.33-6.46-1.99-9.68-1.99-5.97,0-10.52,1.92-13.65,5.76-3.13,3.83-4.7,8.93-4.7,15.27s1.59,11.15,4.75,14.78c3.18,3.62,7.7,5.44,13.6,5.44,3.72,0,7.06-.76,10.02-2.28l-1.2-5.19c-2.88,1.45-5.76,2.17-8.6,2.17Z"/>
    <rect class="st1" x="329.42" y="495.11" width="5.76" height="28.88"/>
    <path class="st1" d="M332.27,483.14c-1.1,0-1.98.32-2.62.94-.64.63-.97,1.45-.97,2.47s.32,1.92.94,2.56c.63.65,1.51.97,2.65.97s1.96-.32,2.59-.97c.63-.64.94-1.5.94-2.56s-.32-1.85-.94-2.47-1.49-.94-2.59-.94Z"/>
    <path class="st1" d="M354.83,519.2c-4.06-7.75-6.53-15.78-7.41-24.1h-5.8c.53,5.36,1.57,10.21,3.13,14.56,1.56,4.35,3.85,9.13,6.89,14.33h6.38c2.92-5.13,5.15-9.87,6.69-14.25,1.54-4.36,2.65-9.25,3.34-14.64h-5.75c-.76,8.28-3.25,16.31-7.47,24.1Z"/>
    <rect class="st1" x="374.54" y="495.11" width="5.75" height="28.88"/>
    <path class="st1" d="M377.39,483.14c-1.11,0-1.98.32-2.62.94-.65.63-.97,1.45-.97,2.47s.31,1.92.94,2.56c.63.65,1.51.97,2.65.97s1.96-.32,2.59-.97c.63-.64.94-1.5.94-2.56s-.31-1.85-.94-2.47-1.49-.94-2.59-.94Z"/>
    <path class="st1" d="M398.41,519.83c-1.25,0-2.15-.41-2.68-1.22-.53-.82-.8-2.1-.8-3.85v-32.02l-5.76.34v31.73c0,6.57,2.69,9.86,8.09,9.86,1.1,0,2.18-.13,3.25-.4l-.46-4.62c-.46.11-1.01.17-1.65.17Z"/>
    <path class="st1" d="M437.2,484.11c-4.71,9.96-9.52,23.25-14.42,39.88h6.15c1.03-3.65,2.05-7.1,3.08-10.37h16.52c1.03,3.27,2.05,6.72,3.08,10.37h6.15c-4.59-15.87-9.4-29.17-14.41-39.88h-6.15ZM433.61,508.5c2.51-7.83,4.73-13.89,6.67-18.18,1.94,4.29,4.16,10.35,6.66,18.18h-13.33Z"/>
    <path class="st1" d="M472.52,507.19c-2.02-.61-3.45-1.2-4.31-1.77-.86-.57-1.28-1.45-1.28-2.62,0-2.36,1.71-3.53,5.13-3.53,1.94,0,4.48.47,7.64,1.42l.68-4.73c-2.43-1.03-5.34-1.54-8.72-1.54s-5.87.73-7.69,2.19c-1.82,1.47-2.73,3.57-2.73,6.3,0,2.35.72,4.18,2.14,5.47,1.42,1.29,3.48,2.33,6.18,3.13,2.65.77,4.47,1.44,5.44,2.03.97.59,1.46,1.47,1.46,2.65s-.5,2.04-1.51,2.68c-1,.65-2.36.97-4.07.97-2.92,0-5.91-.59-8.95-1.77l-.86,4.84c2.81,1.18,6.1,1.77,9.86,1.77,3.38,0,6.1-.73,8.15-2.19,2.05-1.47,3.07-3.6,3.07-6.42,0-2.39-.76-4.23-2.27-5.53-1.52-1.29-3.97-2.41-7.35-3.35Z"/>
    <path class="st1" d="M497.36,507.19c-2.02-.61-3.45-1.2-4.31-1.77-.86-.57-1.28-1.45-1.28-2.62,0-2.36,1.71-3.53,5.13-3.53,1.94,0,4.48.47,7.64,1.42l.68-4.73c-2.43-1.03-5.34-1.54-8.72-1.54s-5.87.73-7.69,2.19c-1.82,1.47-2.73,3.57-2.73,6.3,0,2.35.72,4.18,2.14,5.47,1.42,1.29,3.48,2.33,6.18,3.13,2.65.77,4.47,1.44,5.44,2.03.97.59,1.46,1.47,1.46,2.65s-.5,2.04-1.51,2.68c-1,.65-2.36.97-4.07.97-2.92,0-5.91-.59-8.95-1.77l-.86,4.84c2.81,1.18,6.1,1.77,9.86,1.77,3.38,0,6.1-.73,8.15-2.19,2.05-1.47,3.07-3.6,3.07-6.42,0-2.39-.76-4.23-2.27-5.53-1.52-1.29-3.97-2.41-7.35-3.35Z"/>
    <path class="st1" d="M524.82,494.42c-4.18,0-7.47,1.38-9.88,4.13-2.42,2.76-3.62,6.41-3.62,10.97s1.2,8.27,3.62,11.03c2.41,2.75,5.7,4.13,9.88,4.13s7.53-1.38,9.94-4.13c2.41-2.76,3.62-6.43,3.62-11.03s-1.21-8.21-3.62-10.97c-2.41-2.75-5.72-4.13-9.94-4.13ZM530.54,517.09c-1.27,1.82-3.18,2.74-5.72,2.74s-4.36-.92-5.67-2.76c-1.31-1.85-1.96-4.36-1.96-7.55s.65-5.64,1.96-7.49c1.31-1.84,3.2-2.76,5.67-2.76s4.4.91,5.7,2.74c1.29,1.82,1.93,4.33,1.93,7.51s-.64,5.76-1.91,7.58Z"/>
    <path class="st1" d="M558.88,519.83c-3,0-5.28-.87-6.84-2.62-1.55-1.74-2.34-4.29-2.34-7.64s.75-5.7,2.25-7.55c1.51-1.84,3.62-2.76,6.36-2.76,2.2,0,4.48.49,6.83,1.48l1.14-4.62c-2.47-1.14-5.26-1.71-8.37-1.71-4.41,0-7.86,1.38-10.34,4.16-2.49,2.77-3.74,6.47-3.74,11.1s1.29,8.39,3.85,11.03c2.56,2.64,6.15,3.96,10.8,3.96,3.04,0,5.69-.59,7.97-1.77l-1.03-4.67c-2.2,1.07-4.38,1.6-6.55,1.6Z"/>
    <path class="st1" d="M575.92,483.14c-1.11,0-1.98.32-2.62.94-.65.63-.97,1.45-.97,2.47s.31,1.92.94,2.56c.63.65,1.51.97,2.65.97s1.96-.32,2.59-.97c.63-.64.94-1.5.94-2.56s-.31-1.85-.94-2.47-1.49-.94-2.59-.94Z"/>
    <rect class="st1" x="573.07" y="495.11" width="5.75" height="28.88"/>
    <path class="st1" d="M597,494.42c-3.57,0-6.68.55-9.35,1.65l1.14,4.62c2.32-.95,4.86-1.42,7.64-1.42,4.45,0,6.67,2.05,6.67,6.15v2.39c-1.86-.42-3.88-.63-6.04-.63-3.38,0-6.1.76-8.15,2.27-2.05,1.52-3.08,3.7-3.08,6.55,0,2.59.97,4.67,2.91,6.27,1.94,1.6,4.71,2.39,8.32,2.39,4.71,0,8.6-.87,11.67-2.62v-16.35c0-3.65-.98-6.44-2.96-8.38-1.98-1.94-4.9-2.91-8.78-2.91ZM603.1,519.14c-1.37.8-3.22,1.2-5.53,1.2-3.99,0-5.98-1.51-5.98-4.56s2.05-4.79,6.15-4.79c1.74,0,3.53.23,5.36.68v7.47Z"/>
    <path class="st1" d="M628.22,519.83c-2.96,0-4.45-1.77-4.45-5.3v-14.75h7.12v-4.67h-7.12v-6.9l-5.76.28v6.61h-4.1v4.67h4.1v14.81c0,6.72,3.08,10.09,9.23,10.09,1.55,0,3.09-.19,4.62-.57l-.34-4.67c-.99.27-2.09.4-3.31.4Z"/>
    <path class="st1" d="M640.46,483.14c-1.1,0-1.98.32-2.62.94-.64.63-.97,1.45-.97,2.47s.32,1.92.94,2.56c.63.65,1.51.97,2.65.97s1.96-.32,2.59-.97c.63-.64.94-1.5.94-2.56s-.32-1.85-.94-2.47-1.49-.94-2.59-.94Z"/>
    <rect class="st1" x="637.61" y="495.11" width="5.76" height="28.88"/>
    <path class="st1" d="M664.16,494.42c-4.18,0-7.47,1.38-9.88,4.13-2.41,2.76-3.61,6.41-3.61,10.97s1.21,8.27,3.61,11.03c2.41,2.75,5.71,4.13,9.88,4.13s7.53-1.38,9.94-4.13c2.42-2.76,3.62-6.43,3.62-11.03s-1.21-8.21-3.62-10.97c-2.41-2.75-5.72-4.13-9.94-4.13ZM669.89,517.09c-1.28,1.82-3.18,2.74-5.73,2.74s-4.35-.92-5.67-2.76c-1.31-1.85-1.97-4.36-1.97-7.55s.66-5.64,1.97-7.49c1.31-1.84,3.2-2.76,5.67-2.76s4.4.91,5.7,2.74c1.29,1.82,1.94,4.33,1.94,7.51s-.64,5.76-1.9,7.58Z"/>
    <path class="st1" d="M697.32,494.42c-4.48,0-8.62.9-12.42,2.68v26.89h5.75v-23.24c1.98-.99,4.2-1.48,6.67-1.48,4.29,0,6.44,2.18,6.44,6.55v18.17h5.76v-18.57c0-3.5-1.05-6.2-3.13-8.12-2.09-1.91-5.11-2.87-9.06-2.87Z"/>
  </g>
</svg>